<?xml version="1.0" standalone="no"?>
<!DOCTYPE svg PUBLIC "-//W3C//DTD SVG 1.1//EN" "http://www.w3.org/Graphics/SVG/1.1/DTD/svg11.dtd" >
<svg xmlns="http://www.w3.org/2000/svg" xmlns:xlink="http://www.w3.org/1999/xlink" version="1.1">
<metadata>
Created by FontForge 20180930 at Mon Oct  8 19:26:13 2018
 By root
Copyright (c) Abdul-Majid Bhurgri, 2004. All rights reserved.
</metadata>
<defs>
<font id="ZaheerSindhi" horiz-adv-x="753" >
  <font-face 
    font-family="Zaheer Sindhi"
    font-weight="400"
    font-stretch="normal"
    units-per-em="2048"
    panose-1="2 0 0 0 0 0 0 0 0 0"
    ascent="1638"
    descent="-410"
    x-height="673"
    cap-height="997"
    bbox="-116 -840 2254 1644"
    underline-thickness="100"
    underline-position="-800"
    unicode-range="U+0020-FEEE"
  />
    <missing-glyph />
    <glyph glyph-name="sheeninit" unicode="&#x634;" horiz-adv-x="927" arabic-form="initial" 
d="M880 356q0 -72 -18 -156q-23 -95 -62 -139q-15 -21 -34 -30l-18 -6l-20 -3q-17 0 -97 39q-55 33 -65 36l-4 -2q-17 -21 -99 -76q-44 -21 -91 -21q-49 0 -101 26l-99 49l-3 -2l-60 -47l-14 -7l-26 -10l-22 -5l-22 -2h-35v225h58l23 2q15 2 23 8l25 12l22 18l10 15l23 37
q8 20 33 55q12 18 20 15q16 -3 16 -36l-1 -26l-1 -20q0 -54 34 -78l25 -9l24 -6l19 -3l24 -1q87 0 156 66l103 146q20 -11 20 -42v-30l-5 -31q0 -12 -9 -33l7 -7l32 -19l48 -16q26 -6 51 -6l29 2l3 8l-9 55q-3 21 -19 44l69 140q24 -18 30 -51l5 -35zM446 549l-116 116
l112 112l116 -116zM676 549l-116 116l112 112l116 -116zM556 739l-116 116l112 112l116 -116z" />
    <glyph glyph-name="sheenmedi" unicode="&#x634;" horiz-adv-x="987" arabic-form="medial" 
d="M1007 0h-77q-28 0 -75 32l-31 21l-17 9l-17 -17l-34 -33l-28 -10l-26 -6q-37 0 -91 32l-42 24l-17 6q-6 0 -8 -2q-37 -29 -79 -48q-41 -15 -78 -15q-45 0 -107 25l-112 53l-4 -1l-35 -28l-30 -20l-15 -8l-23 -9l-26 -5h-45v225h39l26 1l28 6q40 6 54 29l38 74q9 22 20 30
l21 10l10 -2l19 -86q15 -64 138 -64q86 0 160 57l82 138l20 -7l4 -12l3 -9v-17l-2 -20l-1 -18l-6 -31q-3 -34 -11 -50l10 -9l18 -11l17 -5l25 -6l22 -2q19 0 76 51l71 132l6 1h5l7 -5l13 -14l3 -33l-3 -40q0 -19 -5 -27l-2 -16q0 -9 20 -26l26 -14l25 -5h41v-225zM376 550
l-116 116l112 112l116 -116zM606 550l-116 116l112 112l116 -116zM486 740l-116 116l112 112l116 -116z" />
    <glyph glyph-name="wawfina" unicode="&#x648;" horiz-adv-x="747" arabic-form="final" 
d="M546 159q0 13 -16 39q-20 36 -58 51l-4 -3l-20 -21l-8 -19l-5 -28l4 -5l14 -14l24 -5l29 -2l30 1l9 2zM771 0h-132q-5 -46 -49 -129l-13 -25l-13 -23q-12 -20 -33 -45q-33 -45 -79 -82l-44 -32l-18 -11l-36 -19q-18 -9 -51 -18l-26 -5l-24 -2q-142 0 -216 50
q-17 8 -29 17l-16 13l-15 14q-12 8 -67 75l77 -9l66 -6l62 -2h62l23 2h12q13 0 16 2q11 0 35 7q54 11 97 40q70 41 106 77t75 99h-35l-14 2l-28 3l-21 6q-48 11 -77 32q-34 29 -34 86l3 38l4 21l7 27q15 52 46.5 103.5t67.5 83.5l24 19l29 10q51 0 105 -102l38 -92h115v-225
z" />
    <glyph glyph-name="space" unicode=" " horiz-adv-x="175" 
 />
    <glyph glyph-name="exclam" unicode="!" horiz-adv-x="522" 
d="M284 329h-34l-81 715q-6 49 -6 73q0 58 31 93t74 35t73 -35t30 -104q0 -22 -4 -62zM261 222q47 0 79 -32.5t32 -78.5t-32.5 -78.5t-78.5 -32.5t-78.5 32.5t-32.5 78.5q0 47 32.5 79t78.5 32z" />
    <glyph glyph-name="quotedbl" unicode="&#x22;" horiz-adv-x="615" 
d="M423 589l-39 216l-17 88v37q0 46 19.5 67.5t54.5 21.5q31 0 52 -21.5t21 -56.5q0 -63 -13 -136l-42 -216h-36zM154 589l-39 219q-17 92 -17 122q0 46 19 67.5t52 21.5t54.5 -21.5t21.5 -58.5q0 -14 -4 -46t-16 -85l-39 -219h-32z" />
    <glyph glyph-name="parenleft" unicode="(" horiz-adv-x="468" 
d="M393 1194q-135 -219 -195 -411l-22 -93l-18 -112q-15 -114 -15 -240q0 -258 54 -451t190 -415q-204 183 -297 385q-38 88 -67 220l-10 65l-7 58q-6 66 -6 136q0 278 89.5 474.5t303.5 383.5z" />
    <glyph glyph-name="parenright" unicode=")" horiz-adv-x="468" 
d="M468 336q0 -150 -22 -260l-12 -56q-3 -14 -5.5 -23.5t-10.5 -33.5q-15 -55 -40 -106q-84 -195 -295 -385l59 103l54 107l40 95l34 103q22 87 40 209l12 121l4 128q0 256 -54.5 439.5t-196.5 416.5q102 -87 175.5 -179.5t123.5 -203.5q94 -209 94 -475z" />
    <glyph glyph-name="asterisk" unicode="*" horiz-adv-x="1033" 
d="M602 513q24 71 47 141q41 90 101 90q35 0 58 -23t23 -57q0 -36 -18 -54q-19 -21 -108 -61.5t-103 -35.5zM600 756q0 -50 -30 -112q-24 -52 -50 -105q-25 27 -53 100.5t-28 112.5q0 31 25 54.5t56 23.5q30 0 55 -22.5t25 -51.5zM933 414q0 -30 -24 -55.5t-54 -25.5
q-34 0 -109 29q-71 28 -105 52q18 22 103 52q79 28 110 28q32 0 55.5 -23t23.5 -57zM430 505q-228 57 -228 149q0 35 24.5 58.5t59.5 23.5q32 0 48 -18q24 -23 62 -109t34 -104zM602 415q0 -34 -24.5 -59t-57.5 -25q-34 0 -59 25t-25 59q0 35 25 58.5t59 23.5
q33 0 57.5 -24.5t24.5 -57.5zM833 174q0 -34 -22 -58t-57 -24q-36 0 -52 20q-22 21 -61 104.5t-36 106.5q62 -6 137 -48q91 -50 91 -101zM598 73q0 -31 -22.5 -52t-55.5 -21q-30 0 -54.5 23t-24.5 53q0 90 79 216h3q75 -120 75 -219zM392 417l-6 -3q-50 -25 -99 -52
q-61 -26 -108 -26q-33 0 -56 23t-23 58q0 27 24 52t50 25q64 0 218 -77zM430 318q0 -51 -49 -132q-53 -91 -99 -91q-32 0 -54.5 24t-22.5 57q0 42 17 55q26 22 100 58q83 39 108 37v-8z" />
    <glyph glyph-name="plus" unicode="+" horiz-adv-x="1050" 
d="M550 450h350v-100h-350v-350h-100v350h-350v100h350v350h100v-350z" />
    <glyph glyph-name="period" unicode="." horiz-adv-x="443" 
d="M376 84q0 -56 -19 -109q-22 -86 -50 -94q-18 0 -101 28q-105 36 -129 74q-2 3 -2 24q0 49 25 131q28 83 46 83q22 0 123 -55q107 -51 107 -82z" />
    <glyph glyph-name="slash" unicode="/" horiz-adv-x="671" 
d="M671 1192l-491 -1450h-80l491 1450h80z" />
    <glyph glyph-name="colon" unicode=":" horiz-adv-x="522" 
d="M419 1q-29 -48 -73 -83q-63 -62 -91 -55q-16 10 -72 77q-71 85 -72 130q0 4 11 22q25 42 89 99q68 56 83 47q19 -12 76 -111q65 -100 49 -126zM432 451q-28 -48 -71 -85q-62 -63 -90 -56q-16 9 -74 75q-73 84 -74 129q0 3 10 21q25 43 87 101q66 58 82 49q19 -11 79 -109
q67 -98 51 -125z" />
    <glyph glyph-name="equal" unicode="=" horiz-adv-x="1050" 
d="M900 225h-800v100h800v-100zM900 475h-800v100h800v-100z" />
    <glyph glyph-name="bracketleft" unicode="[" horiz-adv-x="497" 
d="M422 -528h-422v1719h422v-76h-278v-1568h278v-75z" />
    <glyph glyph-name="bracketright" unicode="]" horiz-adv-x="497" 
d="M75 -453h278v1568h-278v76h422v-1719h-422v75z" />
    <glyph glyph-name="guillemotleft" unicode="&#xab;" horiz-adv-x="701" 
d="M610 6l-288 338l288 331h38l-206 -331l212 -338h-44zM354 6l-283 338l283 331h42l-207 -331l207 -338h-42z" />
    <glyph glyph-name="guillemotright" unicode="&#xbb;" horiz-adv-x="701" 
d="M354 6h-38l205 329l-212 340h37l292 -340zM102 6h-42l206 329l-210 340h36l293 -340z" />
    <glyph glyph-name="divide" unicode="&#xf7;" horiz-adv-x="795" 
d="M494 682q0 -25 -10 -65q-12 -50 -29 -56q-21 0 -63 17q-62 20 -76 45q-2 4 -2 13q0 23 15 79q15 51 28 51t73 -34q64 -33 64 -50zM766 427q1 1 8 1t7 -5q0 -14 -42 -52q-42 -39 -61 -41q-13 -1 -43 -3t-78 -5q-208 0 -330.5 -3t-170.5 -8h-3q-7 0 -7 7q0 18 49 82
q39 3 101.5 5t152.5 4q1 0 60 1.5t180 2.5q66 1 110 4.5t67 9.5zM494 119q0 -25 -10 -64q-12 -52 -29 -55q-14 0 -63 15q-62 20 -76 45q-2 4 -2 13q0 24 15 80q15 50 28 50t73 -34q64 -33 64 -50z" />
    <glyph glyph-name="trademark" unicode="&#x2122;" horiz-adv-x="1187" 
d="M1138 1110h-222v18q42 2 54.5 16t12.5 59l-3 274l-169 -367h-19l-173 363v-270q0 -31 7 -55q11 -20 47 -20h20v-18h-174v18q52 0 61 27q5 10 5 48v261q0 63 -22 73q-13 3 -44 4v20h163l152 -321l149 321h155v-20q-12 -2 -33 -4q-27 -8 -27 -73v-261q0 -59 20 -68
q9 -4 40 -7v-18zM483 1449h-21q-11 78 -106 78h-41v-324q0 -31 7 -55q11 -15 50 -20v-18h-210v18q12 2 19.5 3.5t11.5 2.5q27 10 27 69v324h-45q-90 0 -105 -78h-20l12 112h407z" />
    <glyph glyph-name="quotedblleft" unicode="&#x201c;" horiz-adv-x="738" 
d="M458 1377q45 62 119 62q50 0 87.5 -31.5t37.5 -80.5q0 -45 -30.5 -75t-73.5 -30q-8 0 -27 4t-29 4q-31 0 -31 -49q0 -125 175 -228l-15 -41q-111 41 -179 130q-75 96 -75 206q0 76 41 129zM88 1377q45 62 119 62q50 0 87.5 -31.5t37.5 -80.5q0 -45 -30.5 -75t-73.5 -30
q-8 0 -27 4t-29 4q-31 0 -31 -49q0 -125 175 -228l-15 -41q-111 41 -179 130q-75 96 -75 206q0 76 41 129z" />
    <glyph glyph-name="quotedblright" unicode="&#x201d;" horiz-adv-x="738" 
d="M332 1248q0 -110 -75 -206q-68 -89 -179 -130l-15 41q175 103 175 228q0 49 -31 49q-10 0 -29 -4t-27 -4q-43 0 -73.5 30t-30.5 75q0 49 37.5 80.5t87.5 31.5q74 0 119 -62q41 -53 41 -129zM702 1248q0 -110 -75 -206q-68 -89 -179 -130l-15 41q175 103 175 228
q0 49 -31 49q-10 0 -29 -4t-27 -4q-43 0 -73.5 30t-30.5 75q0 49 37.5 80.5t87.5 31.5q74 0 119 -62q41 -53 41 -129z" />
    <glyph glyph-name="braceleft" unicode="{" horiz-adv-x="590" 
d="M515 -495v-33q-154 22 -250.5 126t-96.5 230q0 67 21 155t21 137q0 66 -55.5 124t-154.5 71v37q99 13 154.5 70.5t55.5 124.5q0 49 -21 137t-21 155q0 126 96.5 230.5t250.5 124.5v-32q-108 -26 -158.5 -85t-50.5 -129q0 -54 21 -143.5t21 -151.5q0 -94 -68.5 -181.5
t-203.5 -135.5q133 -49 202.5 -138.5t69.5 -183.5q0 -62 -21 -151t-21 -144q0 -70 50.5 -128.5t158.5 -85.5z" />
    <glyph glyph-name="braceright" unicode="}" horiz-adv-x="590" 
d="M158.5 -409.5q50.5 58.5 50.5 128.5q0 55 -21 144t-21 151q0 94 69.5 183.5t202.5 138.5q-135 48 -203.5 135.5t-68.5 181.5q0 62 21 151.5t21 143.5q0 70 -50.5 129t-158.5 85v32q154 -20 250.5 -124.5t96.5 -230.5q0 -67 -21 -155t-21 -137q0 -67 55.5 -124.5
t154.5 -70.5v-37q-99 -13 -154.5 -71t-55.5 -124q0 -49 21 -137t21 -155q0 -126 -96.5 -230t-250.5 -126v33q108 27 158.5 85.5z" />
    <glyph glyph-name="bar" unicode="|" horiz-adv-x="410" 
d="M244 1364v-1864h-83v1864h83z" />
    <glyph glyph-name="endash" unicode="&#x2013;" horiz-adv-x="1250" 
d="M1125 150h-1000v100h1000v-100z" />
    <glyph glyph-name="emdash" unicode="&#x2014;" horiz-adv-x="2250" 
d="M2125 150h-2000v100h2000v-100z" />
    <glyph glyph-name="quoteleft" unicode="&#x2018;" horiz-adv-x="621" 
d="M255 779q-70 78 -70 172q0 68 42.5 113.5t96.5 45.5q46 0 80 -31q25 -22 25 -63q0 -36 -25 -60t-57 -24q-13 0 -35 7q-14 6 -22 6q-12 0 -21 -12q-10 -12 -10 -38q0 -42 22 -73q30 -43 111 -92v-35q-89 33 -137 84z" />
    <glyph glyph-name="quoteright" unicode="&#x2019;" horiz-adv-x="621" 
d="M229 695v38q82 49 112 91q21 30 21 73q0 25 -9 37q-10 12 -21 12q-9 0 -23 -6q-21 -7 -34 -7q-32 0 -57 24t-25 60q0 40 25 62q33 31 80 31q53 0 96 -45.5t43 -112.5q0 -94 -71 -172q-47 -51 -137 -85z" />
    <glyph glyph-name="quotesinglbase" unicode="&#x201a;" horiz-adv-x="585" 
d="M191 147q45 62 119 62q50 0 87.5 -31.5t37.5 -80.5q0 -45 -30.5 -75t-73.5 -30q-8 0 -27 4t-29 4q-31 0 -31 -49q0 -125 175 -228l-15 -41q-111 41 -179 130q-75 96 -75 206q0 76 41 129z" />
    <glyph glyph-name="quotedblbase" unicode="&#x201e;" horiz-adv-x="780" 
d="M352 18q0 -110 -75 -206q-68 -89 -179 -130l-15 41q175 103 175 228q0 49 -31 49q-10 0 -29 -4t-27 -4q-43 0 -73.5 30t-30.5 75q0 49 37.5 80.5t87.5 31.5q74 0 119 -62q41 -53 41 -129zM722 18q0 -110 -75 -206q-68 -89 -179 -130l-15 41q175 103 175 228q0 49 -31 49
q-10 0 -29 -4t-27 -4q-43 0 -73.5 30t-30.5 75q0 49 37.5 80.5t87.5 31.5q74 0 119 -62q41 -53 41 -129z" />
    <glyph glyph-name="dagger" unicode="&#x2020;" horiz-adv-x="1147" 
d="M1088 994q0 -53 -28 -53h-4l-443 59v-1301l73 -6q0 -40 -29 -40h-154q-40 0 -40 43v1304l-358 -59q-3 0 -4.5 -1t-3.5 -1q-35 0 -35 49v112q0 45 28 45h4l442 -64l-63 511q-1 1 -1 10q0 33 38 33h103q56 0 62 -14q0 -3 0.5 -5t0.5 -6q0 -3 -0.5 -7t-0.5 -10l-62 -512
l431 61h7q37 0 37 -54v-94z" />
    <glyph glyph-name="daggerdbl" unicode="&#x2021;" horiz-adv-x="1196" 
d="M1110 132q0 -59 -33 -59q-3 0 -4 0.5t-3 0.5l-430 60l57 -421q0 -4 1 -7.5t1 -6.5q0 -38 -45 -38h-112q-45 0 -45 41q0 12 1 14l58 418l-424 -60h-5q-42 0 -42 44v112q0 47 40 47q2 0 5.5 -0.5t6.5 -0.5l419 -58l-42 430l42 427l-419 -57q-3 0 -5.5 -1t-5.5 -1
q-41 0 -41 48v115q0 39 42 39h5l424 -60l-58 421v21q0 34 44 34h112q45 0 45 -38q0 -3 -1 -7t-1 -7l-57 -424l430 60h7q33 0 33 -57v-97q0 -48 -46 -48q-3 0 -5.5 1t-5.5 1l-413 57l42 -427l-42 -430l413 58q3 0 7 0.5t7 0.5q43 0 43 -47v-98z" />
    <glyph glyph-name="bullet" unicode="&#x2022;" horiz-adv-x="812" 
d="M689 860q0 -163 -139 -244q-66 -36 -140 -36q-122 0 -203 79q-81 80 -81 201q0 58 21.5 109.5t60 89t90.5 58.5t112 21q189 0 258 -169q21 -42 21 -109z" />
    <glyph glyph-name="ellipsis" unicode="&#x2026;" horiz-adv-x="2293" 
d="M2027 225q0 -109 -116 -109q-49 0 -82.5 30t-33.5 79q0 108 116 108t116 -108zM1267 225q0 -109 -116 -109q-51 0 -84.5 30t-33.5 79q0 108 118 108q116 0 116 -108zM503 225q0 -109 -117 -109q-49 0 -82.5 30t-33.5 79q0 108 116 108q117 0 117 -108z" />
    <glyph glyph-name="perthousand" unicode="&#x2030;" horiz-adv-x="2293" 
d="M2254 517q0 -229 -146 -336q-68 -52 -149 -52q-170 0 -254 192q-39 79 -39 196q0 224 146 336q68 51 147 51q172 0 256 -191q39 -79 39 -196zM1553 517q0 -227 -147 -336q-69 -52 -149 -52q-171 0 -255 192q-39 79 -39 196q0 224 147 336q69 51 147 51q172 0 256 -193
q40 -80 40 -194zM1399 1644l-1112 -1561h-97l1115 1561h94zM626 1218q0 -225 -147 -336q-69 -52 -149 -52q-170 0 -254 193q-40 80 -40 195q0 224 146 336q64 52 148 52q170 0 257 -192q39 -77 39 -196zM2125 517q0 352 -166 352q-164 0 -164 -352q0 -355 164 -355
q166 0 166 355zM1425 517q0 352 -168 352q-165 0 -165 -352q0 -355 165 -355q168 0 168 355zM497 1218q0 353 -167 353q-165 0 -165 -353t165 -353q167 0 167 353z" />
    <glyph glyph-name="guilsinglleft" unicode="&#x2039;" horiz-adv-x="525" 
d="M416 227l-339 421l339 422h40l-218 -422l218 -421h-40z" />
    <glyph glyph-name="guilsinglright" unicode="&#x203a;" horiz-adv-x="525" 
d="M109 227h-40l218 421l-218 422h40l338 -422z" />
    <glyph glyph-name="zero" unicode="0" horiz-adv-x="642" 
d="M43 322v17q78 111 229 302h11q121 -129 303 -233q5 -1 5 -14l-221 -297q-8 -8 -46 4q-113 53 -281 221z" />
    <glyph glyph-name="one" unicode="1" horiz-adv-x="293" 
d="M100 26l-19 471q-5 79 -10 154q-7 92 0 156q59 133 100 217q19 11 31 7q5 -7 6.5 -29.5t3.5 -29.5q4 -138 0 -239q4 -177 -14 -527q-27 -86 -68 -183q-11 -27 -26 -5z" />
    <glyph glyph-name="two" unicode="2" horiz-adv-x="679" 
d="M201 946q81 -121 204 -124q77 0 185 142q0 12 25 28q14 5 24 -4q-24 -133 -125 -274q-93 -131 -191 -131q-13 0 -27 1t-29 6q-21 10 -30 12q-4 -108 -8 -218q-4 -124 -22 -208q-29 -62 -92 -186q-12 -12 -19 -11q-6 17 -2 47q5 46 5 54q0 34 -5 119q-4 77 -2 121
q-9 165 -49 446q15 36 44 104q20 42 64 126q9 4 16 4q11 0 20 -22q10 -28 14 -32z" />
    <glyph glyph-name="three" unicode="3" horiz-adv-x="995" 
d="M259 575l-4 -5q-5 -106 -9 -212q-9 -124 -28 -204q-28 -53 -87 -158l-15 -5q-4 8 -3 44q14 268 -9 470q-11 74 -29 223q16 51 102 214q4 4 26 4q22 -63 85.5 -115t127.5 -52q60 0 128 70q37 49 52 81q23 10 27 6q14 -13 12 -48t24 -54q37 -29 110 -19q63 23 155 138
q16 0 20 -11q0 -32 -21 -67t-42 -66q-49 -98 -151 -166q-33 -15 -68 -15q-49 0 -83 25q-6 4 -35 38h-5q-98 -137 -199 -137q-44 0 -81 21z" />
    <glyph glyph-name="four" unicode="4" horiz-adv-x="939" 
d="M580 730h5q111 186 256 269q20 0 28 -8q-28 -78 -73 -167q-216 -152 -334 -417q-17 -11 -31 -3q-8 10 -5 29l5 29q19 68 19 110q0 71 -49.5 109.5t-111.5 38.5q-24 0 -48 -8q-65 -20 -74 -76q-1 -40 3 -119q6 -93 6 -126v-252q-3 -12 -54 -197q-4 -3 -9 -10t-11 -3
q-8 29 -19 186q-4 31 -16 159q-12 100 -12 162q0 141 53 247q65 128 72 140q49 75 119 99q40 18 84 18q71 0 118 -42q75 -67 79 -168z" />
    <glyph glyph-name="five" unicode="5" horiz-adv-x="800" 
d="M150 614l239 367l18 7q8 -11 179 -227q108 -136 151 -240q19 -46 19 -96q0 -67 -39 -162q-33 -77 -66 -155q-35 -106 -174 -123q-92 -12 -132 81q0 4 -3.5 9.5t-4.5 6.5q-94 -107 -191 -93q-74 30 -94 146q-3 31 -3 63q0 162 54 327zM338 769q-60 -91 -157 -248
q-62 -101 -62 -190q0 -80 50 -102q27 -12 85 -5q72 8 114 121q4 9 8.5 17t12.5 6q15 -13 19 -39q3 -35 8 -46q41 -70 166 -70q38 19 44 23q22 15 31 33q-19 136 -115 256z" />
    <glyph glyph-name="six" unicode="6" horiz-adv-x="660" 
d="M532 80l10 -68l-16 -15q-21 0 -43 40q-99 238 -88 503q-50 -9 -81 0q-121 34 -231 275q-37 76 -30 136q4 22 23 8q22 -42 80 -124q47 -77 162 -77q93 13 173 169q3 17 21 40q12 -2 19.5 -15.5t13 -27t31.5 -63.5q20 -39 20 -65q0 -21 -10 -38q-58 -243 -58 -526
q0 -75 4 -152z" />
    <glyph glyph-name="seven" unicode="7" horiz-adv-x="949" 
d="M237 460l203 224q88 93 258 287q7 0 11 -4l-32 -140q-23 -29 -193 -221l-204 -229q-45 -48 -66 -81l3 -3q325 0 609 27l59 7q11 -7 6 -40q-32 -89 -54 -159q-14 -21 -26 -17q-327 -33 -663 -32q-52 0 -100 34q-3 8 -3 18q0 52 66 156q55 94 126 173z" />
    <glyph glyph-name="eight" unicode="8" horiz-adv-x="925" 
d="M410 670l-179 -426q-47 -109 -122 -275q-12 -5 -19 10q0 12 -8 54q-4 33 -4 56q0 57 27 90q83 163 177 400q81 201 160 405q4 16 18 16q24 0 35 -27q114 -252 366 -744q-6 -47 -80 -241q-12 -19 -24 -7q-30 50 -88 141l-208 437q-15 37 -48 111h-3z" />
    <glyph glyph-name="nine" unicode="9" horiz-adv-x="595" 
d="M418 -95l-29 -46q-5 -2 -10 0q-2 4 -2 11q4 201 0 507q-8 8 -10 4q-51 -15 -104 -15q-104 0 -154 57q-59 67 -59 160q0 60 23 150q75 271 233 292q78 9 128 -47q66 -90 70 -279q4 -187 -18 -556q1 -52 -22 -119q-23 -60 -46 -119zM385 733q-8 24 -39 45q-54 16 -88 16
q-36 0 -60 -16q-54 -34 -59 -81q16 -63 120 -93q70 -3 87 0q47 5 68 43q-5 60 -29 86z" />
    <glyph glyph-name="multiply" unicode="&#xd7;" horiz-adv-x="907" 
d="M125 46l282 283l-281 281l46 47l282 -282l281 282l45 -46l-281 -281l283 -284l-46 -46l-283 283l-282 -282z" />
    <glyph glyph-name="hamzopesh" unicode="&#xe002;" horiz-adv-x="639" 
d="M589 421l-37 -128q-63 -16 -111 -32.5t-84 -33.5q-46 -24 -99.5 -66.5t-94.5 -75.5l-22 14q5 17 11 34.5t17 31.5q10 25 65 76l-93 54q-39 26 -39 61q0 26 31 88q20 38 40 70.5t47 59.5q63 69 126 69q57 0 96 -35q3 -3 13.5 -13t27.5 -31l-41 -102q-32 17 -33 25
q-46 30 -81 30q-20 0 -39 -6.5t-41 -14.5q-17 -14 -27.5 -24t-10.5 -25q0 -34 46 -63q21 -12 47.5 -23t64.5 -25q55 25 109 48t112 37zM125 670l-29 -3l-5 9q146 76 227 145q-27 10 -37 20q-28 19 -28 65q-2 92 66 137q22 18 72 9q52 -28 52 -68q13 -151 -198 -273
q-67 -30 -120 -41zM386 897q19 8 19 26q0 32 -28 48q-28 11 -62 0q-23 -16 -24 -31q-2 -14 21 -41q21 -9 33 -9q16 -4 41 7z" />
    <glyph glyph-name="ain" unicode="&#x639;" horiz-adv-x="967" 
d="M1102 -662l-416 -172l-60 -5l-29 -1q-138 0 -218 32q-126 42 -208 142q-39 54 -66 140.5t-27 177.5q0 29 9 100l3 29l7 30l19 41q44 129 93 198l-63 43q-72 51 -94 100q-9 23 -9 76q0 125 42 241q59 146 175 146q80 0 120 -23q37 -14 66 -37q13 -6 64 -63l-53 5l-29 1
h-25l-23 -2l-17 -1q-6 0 -20 -7l-42 -14l-21 -6l-23 -12l-43 -23l-38 -25l-56 -58l9 -18l21 -30l18 -17l28 -25q41 -31 99 -48t99 -17l306 224l-14 -200l-316 -237q-70 -46 -145 -177l-22 -50l-16 -49l-9 -46l-4 -48q0 -105 66 -177q19 -19 156 -80l83 -15l44 -4l52 -1h527
v-38z" />
    <glyph glyph-name="numbersign" unicode="#" 
d="M85 -21l68 335h-126v60h138l51 252h-189v59h201l67 334h62l-67 -334h248l71 334h60l-68 -334h124v-59h-136l-51 -252h187v-60h-199l-70 -335h-58l65 335h-247l-70 -335h-61zM227 374h249l52 252h-249z" />
    <glyph glyph-name="dollar" unicode="$" 
d="M80 245h31q0 -48 17.5 -87t46.5 -67q55 -53 164 -64v429q-165 101 -220 181q-39 56 -39 136q0 91 67 158t192 83v67h47v-67q31 0 52 -4.5t51 -11.5q21 -4 140 -50v-220h-28q0 56 -16.5 98.5t-45.5 72.5q-50 53 -153 64v-374q187 -127 239.5 -189.5t52.5 -153.5
q0 -100 -77 -177t-215 -90v-94h-47v94q-31 0 -62.5 4t-65.5 13q-58 11 -131 42v207zM339 620v343q-72 -8 -108 -46t-36 -97q0 -51 32 -99t112 -101zM386 27q56 8 86 28q39 25 63.5 66t24.5 89t-28.5 91t-145.5 125v-399z" />
    <glyph glyph-name="percent" unicode="%" horiz-adv-x="1253" 
d="M1022 1019l-725 -1060h-65l726 1060h64zM267 1019q100 0 154.5 -82t54.5 -188q0 -129 -61.5 -199t-148.5 -70q-57 0 -106 31.5t-78.5 95.5t-29.5 142q0 77 29.5 141.5t81 96.5t104.5 32zM266 979q-38 0 -67.5 -44.5t-29.5 -185.5q0 -102 17 -155q13 -41 38 -63
q17 -13 39 -13q35 0 60 38q37 56 37 189q0 138 -35 196q-25 38 -59 38zM988 494q52 0 104 -33t80.5 -96t28.5 -138q0 -130 -62 -199t-148 -69q-52 0 -103 33t-80.5 94.5t-29.5 140.5q0 77 29.5 140t80.5 96q25 16 50 23.5t50 7.5zM990 455q-35 0 -60 -39q-34 -51 -34 -195
q0 -131 34 -183q25 -38 60 -38q32 0 60 41q35 53 35 183q0 137 -35 193q-24 38 -60 38z" />
    <glyph glyph-name="ampersand" unicode="&#x26;" horiz-adv-x="1170" 
d="M769 641h308v-26q-31 0 -55 -8.5t-41 -21.5q-29 -21 -93.5 -138.5t-146.5 -218.5q32 -38 61.5 -65t55.5 -43q52 -30 104 -30t86 27t50 82l28 -20q-28 -103 -88.5 -153t-140.5 -50q-60 0 -122 33.5t-135 110.5q-93 -81 -165.5 -112.5t-155.5 -31.5q-122 0 -192.5 65
t-70.5 155q0 87 63 176t239 185q-33 74 -45.5 124.5t-12.5 94.5q0 126 92 191q73 52 164 52q88 0 142.5 -51t54.5 -128q0 -78 -52.5 -136.5t-188.5 -129.5q47 -81 94.5 -156.5t100.5 -147.5q130 156 130 261q0 32 -22 60q-16 19 -46 24v26zM487 623q90 42 136 98t46 123
q0 52 -33 87t-82 35q-63 0 -95.5 -45.5t-32.5 -86.5q0 -36 12.5 -81.5t48.5 -129.5zM602 162q-36 49 -59 82q-32 43 -45 64q-16 24 -30 49q-38 60 -84 151q-89 -52 -133 -112.5t-44 -132.5q0 -77 50.5 -137t137.5 -60q47 0 89 19q21 9 49 28t69 49z" />
    <glyph glyph-name="quotesingle" unicode="'" horiz-adv-x="270" 
d="M116 589l-39 219q-17 92 -17 122q0 46 19 67.5t53 21.5q30 0 52.5 -21.5t22.5 -56.5q0 -16 -4 -46.5t-15 -86.5l-40 -219h-32z" />
    <glyph glyph-name="comma" unicode="," horiz-adv-x="375" 
d="M81 -251v33q76 23 117 76.5t41 112.5q0 12 -5.5 21t-10.5 9q-9 0 -35 -15q-14 -7 -28 -7q-37 0 -58 21.5t-21 59.5q0 34 27.5 60.5t66.5 26.5q49 0 87 -43q18 -21 28 -48.5t10 -62.5q0 -76 -52.5 -141t-166.5 -103z" />
    <glyph glyph-name="hyphen" unicode="-" horiz-adv-x="501" 
d="M60 393h381v-110h-381v110z" />
    <glyph glyph-name="semicolon" unicode=";" horiz-adv-x="417" 
d="M207 694q34 0 57.5 -23t23.5 -58q0 -32 -23.5 -56.5t-57.5 -24.5q-17 0 -31 5.5t-28 18.5q-22 25 -22 57q0 35 24 58t57 23zM104 -251v33q77 23 118 76.5t41 112.5q0 12 -5.5 21t-11.5 9q-9 0 -35 -15q-14 -7 -29 -7q-35 0 -56.5 21.5t-21.5 59.5q0 34 28 60.5t67 26.5
q49 0 87 -43q18 -21 27.5 -48.5t9.5 -62.5q0 -76 -51.5 -141t-167.5 -103z" />
    <glyph glyph-name="less" unicode="&#x3c;" horiz-adv-x="850" 
d="M28 518l792 343v-63l-681 -297l681 -298v-66l-792 346v35z" />
    <glyph glyph-name="greater" unicode="&#x3e;" horiz-adv-x="850" 
d="M818 480l-791 -343v63l681 297l-681 298v66l791 -346v-35z" />
    <glyph glyph-name="question" unicode="?" horiz-adv-x="668" 
d="M333 235h-29q0 44 6 81.5t16 71.5q17 59 74 169q47 83 59.5 127t12.5 90q0 94 -49 149.5t-123 55.5q-63 0 -100.5 -31t-37.5 -65q0 -26 22.5 -66.5t22.5 -60.5q0 -28 -16.5 -45.5t-42.5 -17.5q-29 0 -55 31t-26 84q0 82 71.5 146.5t193.5 64.5q151 0 222 -88
q54 -64 54 -144q0 -52 -24 -108.5t-91 -133.5q-105 -119 -130 -171q-13 -28 -21.5 -63t-8.5 -76zM323 144q34 0 58 -23.5t24 -58.5q0 -33 -24 -58q-24 -24 -58 -24q-18 0 -31 5t-26 19q-25 24 -25 58q0 35 24.5 58.5t57.5 23.5z" />
    <glyph glyph-name="at" unicode="@" horiz-adv-x="1386" 
d="M1035 704l-86 -294q-46 -159 -57 -206t-11 -72q0 -23 16 -39.5t38 -16.5q53 0 128 53t129.5 175t54.5 250t-60 233.5t-171.5 163t-245.5 57.5q-168 0 -313.5 -89.5t-232.5 -260.5q-42 -84 -63 -171.5t-21 -178.5q0 -171 74 -308t210 -208.5t291 -71.5q194 0 350 103
t243 303h42q-68 -200 -242 -325.5t-397 -125.5q-173 0 -323 82t-233.5 234.5t-83.5 334.5q0 195 91 363t255 261.5t349 93.5q154 0 275 -61.5t185.5 -183t64.5 -257.5t-59.5 -267.5t-153.5 -192t-192 -60.5q-54 0 -83.5 27t-29.5 74q0 41 14 109q-108 -131 -174 -170.5
t-116 -39.5q-52 0 -92.5 46.5t-40.5 124.5q0 107 68.5 239t184.5 216q86 60 152 60q49 0 81.5 -25t45.5 -77l24 81zM777 673q-55 0 -112 -57q-83 -85 -143 -230q-42 -107 -42 -170q0 -26 5.5 -43.5t19.5 -32.5q27 -29 59 -29q42 0 90 32q24 15 48.5 41t50.5 58q51 67 74 136
q21 59 31 106t10 84q0 49 -26.5 77t-64.5 28z" />
    <glyph glyph-name="A" unicode="A" horiz-adv-x="1086" 
d="M689 333h-387l-67 -157q-25 -58 -25 -86q0 -23 22 -41q13 -10 35.5 -16t57.5 -6v-27h-314v27q62 11 81 29q37 34 83 143l351 820h26l347 -829q42 -100 75 -130q19 -15 42.5 -24t53.5 -9v-27h-392v27q29 0 48 5.5t31 15.5q21 16 21 40q0 32 -29 102zM668 388l-170 403
l-173 -403h343z" />
    <glyph glyph-name="B" unicode="B" horiz-adv-x="1004" 
d="M694 508q104 -22 156 -70q71 -67 71 -165q0 -74 -46 -142t-128.5 -99.5t-250.5 -31.5h-471v27h38q60 0 90 40q16 25 16 109v644q0 93 -21 118q-29 31 -85 31h-38v28h430q119 0 193 -18q111 -27 169 -94t58 -154q0 -76 -45 -134t-136 -89zM309 547l62 -8l78 -1
q108 0 161.5 23t82 71t28.5 104q0 87 -70.5 148.5t-208.5 61.5q-74 0 -133 -15v-384zM309 73q87 -21 170 -21q131 0 201 59.5t70 148.5q0 56 -30.5 111t-102 85.5t-177.5 30.5q-16 0 -42.5 -0.5t-34.5 -0.5q-14 0 -27.5 -1.5t-26.5 -4.5v-407z" />
    <glyph glyph-name="C" unicode="C" horiz-adv-x="1004" 
d="M906 1019l24 -339h-24q-45 152 -129.5 219.5t-203.5 67.5q-98 0 -178 -50t-127 -161.5t-47 -273.5q0 -69 10.5 -126.5t34.5 -109.5q42 -98 129.5 -151t198.5 -53q98 0 172 41.5t164 165.5l22 -15q-76 -132 -175 -195t-238 -63q-246 0 -384 185q-100 136 -100 322
q0 148 65.5 273t184 194t256.5 69q108 0 213 -52q34 -16 45 -16q20 0 35 12q17 21 27 56h25z" />
    <glyph glyph-name="D" unicode="D" horiz-adv-x="1086" 
d="M27 0v27h36q63 0 90 40q16 27 16 109v644q0 93 -21 118q-29 31 -85 31h-36v28h404q223 0 340 -50.5t188 -169.5t71 -273q0 -209 -127 -349q-141 -155 -431 -155h-445zM309 73q49 -11 86.5 -16t72.5 -5q168 0 281 119t113 326q0 204 -112.5 324t-288.5 120q-34 0 -72 -5.5
t-80 -15.5v-847z" />
    <glyph glyph-name="E" unicode="E" horiz-adv-x="920" 
d="M315 942v-395h218q86 0 115 27q20 17 31 47t11 72h27v-347h-27q-10 74 -21 94q-12 25 -43 39.5t-93 14.5h-218v-329q0 -66 5 -79t20.5 -22t55.5 -9h170q85 0 122 11t74 46q46 45 93 137h30l-86 -249h-768v27h35q36 0 67 16q22 13 31.5 36t9.5 96v648q0 95 -20 116
q-27 30 -88 30h-35v28h768l10 -219h-28q-15 80 -35 108q-18 28 -54 45q-30 11 -104 11h-273z" />
    <glyph glyph-name="F" unicode="F" horiz-adv-x="837" 
d="M308 942v-392h181q63 0 91.5 27.5t38.5 109.5h28v-337h-28q0 56 -14 83.5t-40 41.5t-76 14h-181v-313q0 -75 8 -99q9 -17 33 -32q32 -18 67 -18h36v-27h-428v27h36q60 0 88 36q19 24 19 113v644q0 76 -10 100q-7 18 -30 32q-30 17 -67 17h-36v28h742l10 -219h-27
q-18 69 -42.5 102t-63 47.5t-115.5 14.5h-220z" />
    <glyph glyph-name="G" unicode="G" horiz-adv-x="1086" 
d="M924 1019l25 -315h-25q-39 118 -101 178q-88 85 -229 85q-189 0 -290 -151q-83 -126 -83 -302q0 -142 55.5 -259.5t145 -172.5t183.5 -55q56 0 107.5 14.5t98.5 39.5v290q0 74 -12 97t-35 35t-84 12v28h385v-28h-18q-56 0 -78 -38q-7 -14 -10.5 -39t-3.5 -67v-307
q-84 -43 -167.5 -65.5t-184.5 -22.5q-288 0 -438 186q-113 139 -113 321q0 66 16 128t48 124q74 144 206 220q109 64 259 64q52 0 99 -9t125 -38q41 -16 56 -16q13 0 22.5 12t12.5 51h28z" />
    <glyph glyph-name="H" unicode="H" horiz-adv-x="1086" 
d="M309 535h464v285q0 76 -10 100q-7 18 -31 32q-31 17 -67 17h-35v28h426v-28h-35q-37 0 -66 -17q-24 -10 -34 -35q-8 -25 -8 -97v-644q0 -75 10 -99q7 -18 30 -32q33 -18 68 -18h35v-27h-426v27h35q60 0 88 36q20 24 20 113v304h-464v-304q0 -75 10 -99q6 -17 31 -32
q31 -18 67 -18h35v-27h-425v27h33q62 0 90 36q18 24 18 113v644q0 76 -10 100q-5 18 -29 32q-32 17 -69 17h-33v28h425v-28h-35q-36 0 -67 -17q-22 -10 -31.5 -34.5t-9.5 -97.5v-285z" />
    <glyph glyph-name="I" unicode="I" horiz-adv-x="501" 
d="M463 27v-27h-425v27h35q60 0 89 36q19 24 19 113v644q0 76 -12 100q-5 18 -29 32q-32 17 -67 17h-35v28h425v-28h-35q-60 0 -89 -35q-18 -25 -18 -114v-644q0 -75 9 -99q7 -17 31 -32q31 -18 67 -18h35z" />
    <glyph glyph-name="J" unicode="J" horiz-adv-x="585" 
d="M150 969v28h427v-28h-37q-60 0 -88 -35q-18 -24 -18 -114v-487q0 -113 -24.5 -182.5t-84.5 -122t-146 -52.5q-68 0 -108 34.5t-40 79.5q0 35 18 54q25 23 57 23q23 0 41 -15.5t48 -82.5q16 -40 44 -40q19 0 36.5 24t17.5 87v680q0 76 -10 100q-6 18 -30 32q-32 17 -67 17
h-36z" />
    <glyph glyph-name="K" unicode="K" horiz-adv-x="1086" 
d="M449 552l367 -364q93 -91 156 -122.5t127 -38.5v-27h-473v27q42 0 61 14.5t19 31.5q0 18 -7 32t-47 52l-344 340v-321q0 -75 10 -99q7 -17 32 -32q29 -18 66 -18h33v-27h-424v27h35q62 0 90 36q18 24 18 113v644q0 76 -10 101q-7 18 -31 31q-32 17 -67 17h-35v28h424v-28
h-33q-35 0 -66 -17q-22 -10 -34 -35q-8 -24 -8 -97v-305l101 94q217 197 264 266q20 29 20 52q0 15 -15.5 28.5t-51.5 13.5h-24v28h367v-28q-31 0 -58.5 -8.5t-65 -31t-95.5 -75.5l-148 -150z" />
    <glyph glyph-name="L" unicode="L" horiz-adv-x="920" 
d="M862 274l26 -4l-86 -270h-771v27h36q65 0 91 42q16 23 16 109v642q0 93 -21 118q-30 31 -86 31h-36v28h451v-28q-82 0 -112 -14q-31 -16 -44 -39q-11 -26 -11 -112v-626q0 -62 11 -84q9 -17 28.5 -24t113.5 -7h72q118 0 163 17t82.5 59.5t76.5 134.5z" />
    <glyph glyph-name="M" unicode="M" horiz-adv-x="1338" 
d="M616 0l-385 839v-665q0 -93 20 -117q26 -30 86 -30h34v-27h-346v27h35q63 0 90 37q7 13 11 40.5t4 69.5v651q0 65 -14 95q-11 21 -38.5 35t-87.5 14v28h283l361 -780l356 780h283v-28h-35q-65 0 -91 -38q-7 -11 -12 -38.5t-5 -67.5v-651q0 -93 21 -117q26 -30 87 -30h35
v-27h-425v27h35q63 0 90 37q7 13 12 40.5t5 69.5v665l-385 -839h-24z" />
    <glyph glyph-name="N" unicode="N" horiz-adv-x="1086" 
d="M-20 997h271l609 -748v576q0 91 -21 113q-27 31 -86 31h-33v28h345v-28h-35q-63 0 -89 -38q-7 -11 -11.5 -38.5t-4.5 -67.5v-840h-28l-656 802v-613q0 -93 21 -117q26 -30 84 -30h36v-27h-347v27h34q64 0 92 37q7 13 11 40.5t4 69.5v693q-42 49 -64 64t-67 32
q-23 6 -65 6v28z" />
    <glyph glyph-name="O" unicode="O" horiz-adv-x="1086" 
d="M550 1019q193 0 336 -147.5t143 -367.5q0 -227 -143.5 -377.5t-346.5 -150.5q-206 0 -346.5 147t-140.5 378q0 238 162 388q140 130 336 130zM536 966q-133 0 -214 -99q-101 -125 -101 -362q0 -243 104 -376q80 -100 213 -100q140 0 231.5 110t91.5 345q0 257 -101 383
q-81 99 -224 99z" />
    <glyph glyph-name="P" unicode="P" horiz-adv-x="837" 
d="M308 468v-292q0 -95 21 -116q28 -33 84 -33h39v-27h-427v27h38q63 0 90 42q15 22 15 107v644q0 93 -20 118q-29 31 -85 31h-38v28h366q134 0 210.5 -27.5t129.5 -93t53 -155.5q0 -123 -80.5 -198.5t-227.5 -75.5q-38 0 -78 4t-90 17zM308 508l70 -11l52 -4q75 0 130.5 60
t55.5 154q0 63 -26 118.5t-75 84t-110 28.5q-38 0 -97 -15v-415z" />
    <glyph glyph-name="Q" unicode="Q" horiz-adv-x="1086" 
d="M662 -11q76 -129 162 -190t198 -71v-23q-48 0 -102.5 11t-113 30t-112.5 44t-107 59q-101 64 -178 140q-105 42 -168 91q-88 70 -138.5 174t-50.5 247q0 223 145 370.5t350 147.5q196 0 339.5 -147.5t143.5 -374.5q0 -182 -102 -320t-266 -188zM539 963q-133 0 -214 -96
q-104 -119 -104 -366q0 -243 104 -374q81 -100 214 -100q139 0 223 100q99 119 99 352q0 89 -13.5 164t-39.5 137q-42 94 -112 138.5t-157 44.5z" />
    <glyph glyph-name="R" unicode="R" horiz-adv-x="1004" 
d="M1018 0h-268l-337 466l-60 -3h-21h-7q-4 0 -16 3v-290q0 -95 20 -116q29 -33 84 -33h39v-27h-425v27h36q63 0 90 42q16 21 16 107v644q0 94 -21 118q-29 31 -85 31h-36v28h361q162 0 236.5 -23t127 -85.5t52.5 -147.5q0 -93 -59.5 -160t-187.5 -97l206 -285
q70 -97 122 -130q49 -31 133 -42v-27zM309 512l24 -1h17q143 0 215.5 62.5t72.5 157.5q0 92 -58 151t-154 59q-45 0 -117 -14v-415z" />
    <glyph glyph-name="S" unicode="S" horiz-adv-x="837" 
d="M690 1019v-344h-28q-5 49 -17 88t-30 70q-34 57 -97 92t-130 35q-77 0 -127 -46.5t-50 -105.5q0 -45 31 -84q45 -55 217 -147q139 -74 189.5 -114t79 -94.5t28.5 -115.5q0 -110 -87.5 -193.5t-226.5 -83.5q-42 0 -81 9q-22 1 -94 25t-92 24q-17 0 -29 -12
q-10 -11 -14 -46h-28v343h28q8 -53 20.5 -93.5t29.5 -67.5q32 -54 98 -88.5t147 -34.5q91 0 145 48.5t54 113.5q0 37 -20.5 74t-62.5 71q-28 21 -157 92q-61 35 -107.5 64.5t-75.5 51.5q-53 42 -81 93t-28 114q0 107 82 184.5t210 77.5q82 0 168 -39q19 -8 34 -13t24 -5
q19 0 31 11t19 46h28z" />
    <glyph glyph-name="T" unicode="T" horiz-adv-x="920" 
d="M871 997l11 -234h-28q-8 62 -22 88q-23 42 -61.5 62.5t-98.5 20.5h-141v-760q0 -93 21 -117q28 -30 85 -30h35v-27h-423v27h35q62 0 90 37q7 13 12 40.5t5 69.5v760h-121q-71 0 -99 -10q-37 -14 -65 -53q-26 -39 -33 -108h-28l12 234h814z" />
    <glyph glyph-name="U" unicode="U" horiz-adv-x="1086" 
d="M718 969v28h353v-28h-38q-59 0 -91 -49q-15 -23 -15 -105v-405q0 -152 -29.5 -232.5t-116.5 -141t-238 -60.5q-164 0 -247 57t-120 152q-23 66 -23 245v390q0 93 -25.5 121t-82.5 28h-37v28h430v-28h-38q-63 0 -88 -39q-18 -27 -18 -110v-434q0 -32 2 -62.5t8 -70.5
q11 -77 39 -118t80 -68q26 -12 59 -20t70 -8q98 0 175 42t105.5 109.5t28.5 226.5v403q0 93 -20 118q-29 31 -85 31h-38z" />
    <glyph glyph-name="V" unicode="V" horiz-adv-x="1086" 
d="M1068 997v-28q-53 -9 -80 -34q-37 -35 -68 -110l-347 -849h-28l-374 861q-28 65 -39 80q-10 13 -21.5 21t-25.5 14q-25 13 -71 17v28h406v-28q-69 -6 -90 -22.5t-21 -43.5q0 -38 35 -116l254 -584l235 577q34 87 34 119q0 21 -20.5 40.5t-72.5 27.5l-12 2v28h306z" />
    <glyph glyph-name="W" unicode="W" horiz-adv-x="1421" 
d="M1408 997v-28q-37 0 -62.5 -13.5t-46.5 -52.5q-14 -27 -46 -123l-277 -804h-30l-226 639l-227 -639h-25l-299 829q-30 91 -40 109q-14 27 -40 41t-69 14v28h368v-28h-17q-38 0 -59 -17q-11 -10 -16 -19.5t-5 -23.5q0 -26 32 -118l196 -559l166 475l-30 84l-24 67
q-15 38 -33 65q-9 11 -25 23.5t-32.5 17.5t-47.5 5v28h388v-28h-27q-39 0 -58.5 -17.5t-19.5 -47.5q0 -37 32 -131l192 -541l190 548q31 91 31 127q0 16 -10 30.5t-27 21.5q-29 10 -74 10v28h298z" />
    <glyph glyph-name="X" unicode="X" horiz-adv-x="1086" 
d="M615 552l214 -320q88 -133 130 -168q25 -16 51 -26.5t60 -10.5v-27h-429v27q41 0 60 8t29.5 21t10.5 28t-6.5 30.5t-41.5 67.5l-169 256l-209 -269q-32 -40 -39 -55t-7 -30q0 -22 19 -39q12 -7 30.5 -12.5t45.5 -5.5v-27h-353v27q37 4 65 16q46 19 86 51q20 17 43 41.5
t51 57.5l235 297l-196 288q-79 117 -135 152q-28 19 -60.5 29t-68.5 10v28h460v-28q-28 0 -48 -5t-33 -13q-21 -17 -21 -38q0 -27 37 -80l151 -228l178 224q32 40 38 55.5t6 28.5q0 15 -9.5 28.5t-27 20.5t-69.5 7v28h354v-28q-21 0 -37 -3t-31 -10q-41 -17 -73 -45
t-94 -106z" />
    <glyph glyph-name="Y" unicode="Y" horiz-adv-x="1086" 
d="M717 997h347v-28h-18q-20 0 -55.5 -16t-65.5 -47.5t-75 -104.5l-241 -378v-249q0 -93 20 -117q28 -30 88 -30h32v-27h-423v27h35q63 0 90 37q8 13 12.5 40.5t4.5 69.5v235l-273 417q-47 70 -68 91q-16 18 -71 45q-15 7 -42 7v28h426v-28h-23q-33 0 -62.5 -15.5
t-29.5 -49.5q0 -25 46 -95l207 -320l196 306q44 69 44 102q0 20 -10 37t-31 26t-60 9v28z" />
    <glyph glyph-name="Z" unicode="Z" horiz-adv-x="920" 
d="M867 997l-656 -937h408q95 0 144.5 40.5t90.5 168.5l24 -6l-48 -263h-812v27l640 911h-319q-77 0 -113 -17.5t-57 -51.5q-16 -30 -33 -121h-28l21 249h738z" />
    <glyph glyph-name="backslash" unicode="\" horiz-adv-x="417" 
d="M60 1044l361 -1065h-58l-362 1065h59z" />
    <glyph glyph-name="asciicircum" unicode="^" horiz-adv-x="707" 
d="M367 1018l311 -528h-68l-256 431l-257 -431h-70l317 528h23z" />
    <glyph glyph-name="underscore" unicode="_" 
d="M766 -325h-779v62h779v-62z" />
    <glyph glyph-name="grave" unicode="`" horiz-adv-x="501" 
d="M87 1022h164l78 -253h-27z" />
    <glyph glyph-name="a" unicode="a" horiz-adv-x="668" 
d="M428 97q-103 -79 -130 -93q-40 -18 -84 -18q-70 0 -115.5 47.5t-45.5 126.5q0 47 23 85q29 48 105 94q72 42 247 108v25q0 101 -31.5 138.5t-92.5 37.5q-46 0 -73.5 -25t-27.5 -57v-44q0 -31 -17 -50.5t-46 -19.5q-25 0 -43 20q-17 19 -17 52q0 63 63.5 116t181.5 53
q91 0 147 -31q43 -22 64 -71q14 -31 14 -129v-228q0 -48 1 -77.5t3.5 -46t9.5 -23.5q9 -6 21 -7q11 0 21 5q16 9 59 54v-42q-81 -111 -157 -111q-36 0 -58 26t-22 85zM428 144v256q-112 -43 -142 -61q-58 -31 -83 -67.5t-25 -76.5q0 -55 30.5 -89.5t72.5 -34.5q56 0 147 73z
" />
    <glyph glyph-name="b" unicode="b" 
d="M232 557q97 136 210 136q104 0 181 -89t77 -241q0 -180 -119 -290q-102 -94 -227 -94q-29 0 -59 5t-61 17q-60 21 -123 63v698q0 117 -7 141q-5 27 -17 36q-2 3 -10 6.5t-20 3.5q-19 0 -51 -11l-10 25l203 81h33v-487zM232 510v-404q37 -33 76 -54q42 -18 83 -18
q65 0 123.5 73.5t58.5 213.5q0 128 -57.5 198t-131.5 70q-38 0 -77 -21q-31 -15 -75 -58z" />
    <glyph glyph-name="c" unicode="c" horiz-adv-x="668" 
d="M619 256q-27 -133 -106.5 -205t-175.5 -72q-116 0 -200.5 96.5t-84.5 260.5q0 160 94.5 258.5t225.5 98.5q100 0 163.5 -52.5t63.5 -109.5q0 -27 -18 -45q-18 -17 -50 -17q-42 0 -65 28q-11 14 -17 59q0 21 -7.5 37t-21.5 29q-27 22 -71 22q-75 0 -119 -55
q-61 -71 -61 -190q0 -120 59.5 -212.5t160.5 -92.5q72 0 129 49q39 32 80 123z" />
    <glyph glyph-name="d" unicode="d" 
d="M522 76q-47 -49 -95 -73t-102 -24q-111 0 -193 93t-82 236q0 146 91 266t234 120q88 0 147 -57v125q0 117 -5 141q-5 27 -17 36q-3 3 -10.5 6.5t-19.5 3.5q-19 0 -50 -11l-10 25l200 81h34v-778q0 -118 5 -143.5t17.5 -36t27.5 -10.5q23 0 55 12l7 -25l-200 -84h-34v97z
M522 127v348q-4 47 -25.5 89t-59 63t-70.5 21q-65 0 -116 -59q-66 -75 -66 -222t63.5 -227t144.5 -80q66 0 129 67z" />
    <glyph glyph-name="e" unicode="e" horiz-adv-x="668" 
d="M161 420q0 -150 72 -235.5t172 -85.5q67 0 115 36t82 125l24 -15q-16 -101 -90 -183.5t-186 -82.5q-122 0 -208 94.5t-86 254.5q0 172 88 269t223 97q112 0 185.5 -74.5t73.5 -199.5h-465zM161 462h311q0 31 -4.5 53.5t-11.5 37.5q-18 41 -56 66q-16 11 -35 16.5t-40 5.5
q-60 0 -108 -47t-56 -132z" />
    <glyph glyph-name="f" unicode="f" horiz-adv-x="501" 
d="M309 620v-442q0 -94 21 -119q27 -32 73 -32h60v-27h-400v27h29q30 0 53.5 14.5t33.5 39.5t10 97v442h-132v53h132v44q0 102 32 171.5t98.5 112t149.5 42.5q78 0 141 -50q44 -34 44 -73q0 -24 -19 -43t-41 -19q-17 0 -37 13q-17 11 -44 51t-51 54q-24 15 -50 15
q-34 0 -57 -18t-34.5 -56.5t-11.5 -195.5v-48h175v-53h-175z" />
    <glyph glyph-name="g" unicode="g" 
d="M227 245q-62 29 -95 84t-33 120q0 98 75 171t193 73q96 0 168 -48h143q29 0 34.5 -1t9 -7t3.5 -22q0 -21 -2.5 -25.5t-7.5 -7t-37 -2.5h-89q42 -54 42 -135q0 -95 -72.5 -161.5t-193.5 -66.5q-28 0 -50 3t-52 12q-32 -29 -44 -49.5t-12 -35.5q0 -13 12 -24t48 -17l104 -5
q74 0 121 -3.5t75 -7.5q67 -9 108.5 -50t41.5 -102q0 -82 -79 -155q-116 -108 -299 -108q-140 0 -240 63q-54 37 -54 77q0 18 7 35q12 27 52 76l75 80q-36 21 -53 39.5t-17 41.5q0 26 20.5 60t97.5 98zM354 658q-54 0 -90.5 -43.5t-36.5 -132.5q0 -117 50 -181
q38 -48 97 -48q54 0 90.5 42t36.5 131q0 117 -50 183q-38 49 -97 49zM220 0q-34 -36 -52 -69t-18 -60q0 -36 42 -63q74 -45 213 -45q133 0 195 46.5t62 99.5q0 38 -36 55q-20 8 -59 13.5t-92 5.5q-76 0 -139.5 5t-115.5 12z" />
    <glyph glyph-name="h" unicode="h" 
d="M245 1044v-492q83 92 129.5 116.5t94.5 24.5q57 0 98 -31t62 -101q15 -47 15 -170v-238q0 -34 2 -55t6 -34q9 -16 27 -26.5t64 -10.5v-27h-330v27h14q48 0 66 14q17 14 25 42q3 11 3 70v238q0 110 -11.5 143.5t-36 51t-60.5 17.5q-18 0 -36.5 -4t-39.5 -14
q-37 -18 -92 -77v-355q0 -70 7.5 -86.5t27.5 -28.5q22 -11 74 -11v-27h-334v27q44 0 70 14q14 7 23.5 27t9.5 85v609q0 117 -7 141q-4 27 -16 36.5t-31 9.5q-14 0 -49 -11l-10 25l201 81h34z" />
    <glyph glyph-name="i" unicode="i" horiz-adv-x="417" 
d="M218 1044q31 0 53 -21.5t22 -50.5q0 -33 -22 -54.5t-53 -21.5q-30 0 -52.5 21.5t-22.5 54.5q0 29 21.5 50.5t53.5 21.5zM279 693v-540q0 -63 9 -84t27 -31.5t66 -10.5v-27h-326v27q49 0 65.5 9t26.5 31.5t10 85.5v259q0 109 -5.5 137t-17 37t-30.5 9t-49 -11l-12 26
l203 83h33z" />
    <glyph glyph-name="j" unicode="j" horiz-adv-x="417" 
d="M217 1046q31 0 53.5 -22.5t22.5 -53.5t-22 -52.5t-54 -21.5q-31 0 -52.5 21.5t-21.5 52.5t21.5 53.5t52.5 22.5zM280 693v-678q0 -172 -73 -256t-192 -84q-65 0 -98 24.5t-33 49.5q0 26 19 44.5t41 18.5q20 0 41 -9q11 -6 46.5 -38t60.5 -32q17 0 34 14t25 46
q4 15 6.5 48.5t2.5 88.5v480q0 109 -6 138t-17.5 38t-30.5 9t-50 -11l-10 26l203 83h31z" />
    <glyph glyph-name="k" unicode="k" 
d="M246 1044v-669l171 156q55 50 63 63q4 8 6 18q0 15 -11 25q-13 13 -41 13v23h293v-23q-58 0 -101 -19q-39 -16 -87 -60l-172 -159l172 -219q71 -91 97 -115q33 -33 61 -44q20 -7 65 -7v-27h-328v27q29 0 38.5 8t9.5 21q0 17 -30 55l-206 264v-224q0 -64 8.5 -84.5t27 -30
t72.5 -9.5v-27h-341v27q51 0 77 12q14 7 23.5 28t9.5 81v614q0 117 -4 142.5t-16.5 35t-31.5 9.5q-16 0 -46 -11l-12 25l198 81h35z" />
    <glyph glyph-name="l" unicode="l" horiz-adv-x="417" 
d="M279 1044v-891q0 -63 8 -83.5t29 -33.5q19 -9 72 -9v-27h-331v27q47 0 63.5 9t26.5 32.5t10 84.5v610q0 116 -5 141.5t-17 35t-29 9.5q-21 0 -49 -11l-12 25l200 81h34z" />
    <glyph glyph-name="m" unicode="m" horiz-adv-x="1170" 
d="M246 550l87 84q32 27 70.5 43t76.5 16q63 0 108 -36.5t63 -106.5q73 87 126 115t109 28q53 0 94.5 -27.5t66.5 -90.5q7 -21 11.5 -54.5t4.5 -78.5v-289q0 -63 9 -89q7 -14 27 -26q20 -11 66 -11v-27h-333v27h14q43 0 67 16q17 12 25 38q3 16 3 72v289q0 80 -20 115
q-29 48 -92 48q-38 0 -78.5 -20.5t-95.5 -70.5l-1 -9l1 -32v-320q0 -70 8 -87t29.5 -28t73.5 -11v-27h-340v27q53 0 74.5 12.5t30.5 40.5q4 12 4 73v289q0 80 -25 118q-33 46 -90 46q-20 0 -39.5 -5t-38.5 -16q-61 -31 -96 -71v-361q0 -68 9.5 -86.5t27.5 -31.5q19 -8 74 -8
v-27h-335v27q47 0 65 9t29 31q10 25 10 86v256q0 110 -5.5 139t-17.5 38t-30 9q-20 0 -51 -11l-9 26l203 83h30v-143z" />
    <glyph glyph-name="n" unicode="n" 
d="M244 550q117 143 225 143q56 0 95 -28q38 -25 63 -91q17 -46 17 -134v-287q0 -66 8 -89q9 -16 27 -26.5t67 -10.5v-27h-333v27h14q46 0 65 14.5t26 41.5q3 7 3.5 21.5t0.5 48.5v274q0 91 -23.5 133t-81.5 42q-88 0 -173 -95v-354q0 -70 9 -88.5t26 -29.5q19 -8 74 -8v-27
h-333v27h15q50 0 69 25q8 12 13 38t5 63v249q0 124 -6 148q-5 27 -17 36t-30 9q-19 0 -49 -11l-12 26l203 83h33v-143z" />
    <glyph glyph-name="o" unicode="o" 
d="M375 693q153 0 247 -116q78 -101 78 -227q0 -92 -42.5 -184.5t-119.5 -139.5t-170 -47q-151 0 -242 122q-76 102 -76 228q0 94 46.5 185t121.5 135t157 44zM354 645q-39 0 -78 -23t-63.5 -80.5t-24.5 -149.5q0 -147 58 -254t154 -107q70 0 117 58.5t47 203.5
q0 179 -78 281q-52 71 -132 71z" />
    <glyph glyph-name="p" unicode="p" 
d="M-1 606l207 84h28v-157q52 87 105 123.5t110 36.5q101 0 170 -80q82 -98 82 -252q0 -175 -99 -288q-84 -94 -209 -94q-51 0 -93 15q-30 12 -66 45v-206q0 -68 8.5 -86.5t29.5 -30t75 -11.5v-27h-353v27h20q38 0 67 15q13 8 21.5 27t8.5 91v637q0 65 -6 83.5t-18.5 27
t-34.5 8.5q-18 0 -45 -12zM234 489v-251q0 -81 7 -106q10 -44 49.5 -77t101.5 -33q71 0 119 59q59 74 59 210q0 156 -67 238q-47 58 -112 58q-34 0 -70 -19q-26 -12 -87 -79z" />
    <glyph glyph-name="q" unicode="q" 
d="M644 693v-867q0 -63 8.5 -81t27.5 -29t73 -11v-27h-340v27h14q41 0 62 11q14 8 23.5 29t9.5 81v290q-66 -78 -117 -107.5t-104 -29.5q-97 0 -174 89t-77 239q0 169 101.5 277.5t244.5 108.5q42 0 76.5 -12t63.5 -36q44 21 83 48h25zM522 162v317q0 56 -15 87
q-14 30 -50.5 52.5t-82.5 22.5q-83 0 -141.5 -70t-58.5 -211q0 -135 59.5 -206t144.5 -71q43 0 76 18t68 61z" />
    <glyph glyph-name="r" unicode="r" horiz-adv-x="501" 
d="M244 693v-151q84 151 173 151q39 0 66.5 -24.5t27.5 -58.5q0 -29 -19.5 -48t-44.5 -19q-27 0 -58.5 25.5t-46.5 25.5q-14 0 -30 -14q-33 -30 -68 -100v-323q0 -55 14 -84q8 -21 33 -33.5t70 -12.5v-27h-344v27q50 0 77 16q17 9 25 37q4 14 4 71v262q0 118 -5 139.5
t-18 32t-31 10.5q-21 0 -52 -11l-7 26l203 83h31z" />
    <glyph glyph-name="s" unicode="s" horiz-adv-x="585" 
d="M482 693v-230h-24q-28 110 -72 148.5t-112 38.5q-50 0 -81.5 -27.5t-31.5 -61.5q0 -40 22.5 -69.5t92.5 -64.5l108 -52q149 -73 149 -192q0 -91 -70 -147.5t-155 -56.5q-62 0 -141 22q-27 7 -40 7q-16 0 -26 -19h-24v241h24q19 -103 77.5 -155.5t130.5 -52.5
q51 0 83 29.5t32 71.5q0 51 -35 85t-142 88t-140.5 96t-33.5 106q0 83 57.5 139t148.5 56q40 0 95 -17q38 -11 50 -11q10 0 17.5 5t16.5 23h24z" />
    <glyph glyph-name="t" unicode="t" horiz-adv-x="417" 
d="M242 895v-222h158v-51h-158v-437q0 -66 19 -88.5t48 -22.5q26 0 48 15t35 44h28q-24 -70 -72 -107t-97 -37q-34 0 -66 19t-47.5 54t-15.5 107v453h-108v23q42 16 83.5 55t76.5 92q15 27 46 103h22z" />
    <glyph glyph-name="u" unicode="u" 
d="M637 673v-407q0 -119 5.5 -144t18 -35.5t28.5 -10.5q22 0 52 12l9 -25l-201 -84h-34v143q-84 -91 -131 -117t-97 -26q-56 0 -97.5 33t-58 84.5t-16.5 144.5v302q0 48 -10 65.5t-29.5 27t-74.5 9.5v28h236v-450q0 -94 33.5 -124t79.5 -30q29 0 69 20t96 76v382
q0 58 -21 76q-10 11 -31 16.5t-54 5.5v28h228z" />
    <glyph glyph-name="v" unicode="v" 
d="M13 673h316v-28h-21q-29 0 -44 -13t-15 -38q0 -24 17 -61l155 -372l159 386q16 42 16 63q0 10 -7 17q-7 10 -19.5 14t-51.5 4v28h221v-28q-18 0 -31.5 -3.5t-21.5 -10.5q-25 -22 -46 -74l-240 -578h-29l-241 568q-15 38 -30 55.5t-38 30.5q-10 7 -49 12v28z" />
    <glyph glyph-name="w" unicode="w" horiz-adv-x="1086" 
d="M10 673h281v-28q-18 0 -30.5 -3.5t-19.5 -10.5q-13 -11 -13 -30q0 -24 13 -56l144 -387l146 315l-40 100q-16 43 -46 60q-8 7 -22 9.5t-38 2.5v28h321v-28q-51 0 -75 -18q-15 -11 -15 -38q0 -9 0.5 -15t5.5 -14l152 -386l143 371q14 40 14 64q0 13 -14 24q-7 7 -21.5 9.5
t-34.5 2.5v28h211v-28q-63 -8 -93 -85l-226 -581h-29l-168 430l-198 -430h-26l-216 566q-21 51 -41 71t-65 29v28z" />
    <glyph glyph-name="x" unicode="x" 
d="M20 673h317v-28q-30 0 -42 -9.5t-12 -26.5q0 -18 25 -55l24 -36l47 -77l55 77q55 71 55 91q0 15 -13 25.5t-42 10.5v28h228v-28q-17 0 -31.5 -4.5t-29.5 -14.5q-35 -24 -100 -108l-91 -123l167 -242q61 -86 88 -107q14 -8 32 -13.5t37 -5.5v-27h-317v27q34 0 51 14
q14 11 14 28q0 16 -48 84l-97 144l-109 -144q-50 -66 -50 -79q0 -17 17 -32q8 -7 20.5 -11t29.5 -4v-27h-220v27q27 4 46 18q27 19 94 108l142 189l-129 184q-55 80 -84 100q-30 19 -74 19v28z" />
    <glyph glyph-name="y" unicode="y" 
d="M8 673h314v-28h-14q-34 0 -50.5 -14t-16.5 -35q0 -29 25 -79l164 -339l150 371q12 31 12 60q0 14 -5.5 20.5t-19 11t-42.5 4.5v28h218v-28q-23 0 -40 -11q-14 -8 -34 -32q-7 -11 -25 -57l-273 -672q-41 -98 -105 -148t-123 -50q-44 0 -72 24.5t-28 58.5q0 29 20 50
q21 17 56 17q25 0 66 -15q29 -12 36 -12q23 0 48.5 22.5t52.5 88.5l49 118l-242 508q-10 18 -35 56q-18 25 -32 35t-54 19v28z" />
    <glyph glyph-name="z" unicode="z" horiz-adv-x="668" 
d="M631 207l-8 -207h-592v27l445 595h-220q-71 0 -93.5 -9.5t-35.5 -35.5q-11 -18 -17 -41.5t-6 -49.5h-30l6 187h564v-28l-452 -596h246q79 0 105.5 12.5t43.5 44.5q11 26 19 101h25z" />
    <glyph glyph-name="asciitilde" unicode="~" horiz-adv-x="815" 
d="M783 497h33q0 -94 -54 -151q-51 -53 -126 -53q-33 0 -73.5 11t-199.5 77q-114 47 -161 47q-52 0 -87 -30.5t-51 -103.5h-32q0 49 14 86t41 65q49 53 117 53q17 0 33 -2.5t33 -6.5q80 -24 203 -77.5t174 -53.5q56 0 93 36t43 103z" />
  </font>
</defs>
</svg>
